<?xml version="1.0" encoding="UTF-8" standalone="no"?>
<!-- Created with Inkscape (http://www.inkscape.org/) -->

<svg
   xmlns:dc="http://purl.org/dc/elements/1.1/"
   xmlns:cc="http://creativecommons.org/ns#"
   xmlns:rdf="http://www.w3.org/1999/02/22-rdf-syntax-ns#"
   xmlns:svg="http://www.w3.org/2000/svg"
   xmlns="http://www.w3.org/2000/svg"
   xmlns:sodipodi="http://sodipodi.sourceforge.net/DTD/sodipodi-0.dtd"
   xmlns:inkscape="http://www.inkscape.org/namespaces/inkscape"
   version="1.1"
   id="svg4747"
   xml:space="preserve"
   width="800"
   height="800"
   viewBox="0 0 800 800"
   sodipodi:docname="green-grass-publicdomainvectors.org (2).svg"
   inkscape:version="0.92.4 (5da689c313, 2019-01-14)"><metadata
     id="metadata4753"><rdf:RDF><cc:Work
         rdf:about=""><dc:format>image/svg+xml</dc:format><dc:type
           rdf:resource="http://purl.org/dc/dcmitype/StillImage" /><dc:title></dc:title></cc:Work></rdf:RDF></metadata><defs
     id="defs4751"><clipPath
       clipPathUnits="userSpaceOnUse"
       id="clipPath4763"><path
         d="M 0,600 H 600 V 0 H 0 Z"
         id="path4761"
         inkscape:connector-curvature="0" /></clipPath></defs><sodipodi:namedview
     pagecolor="#ffffff"
     bordercolor="#666666"
     borderopacity="1"
     objecttolerance="10"
     gridtolerance="10"
     guidetolerance="10"
     inkscape:pageopacity="0"
     inkscape:pageshadow="2"
     inkscape:window-width="797"
     inkscape:window-height="480"
     id="namedview4749"
     showgrid="false"
     inkscape:zoom="0.31263521"
     inkscape:cx="400"
     inkscape:cy="400"
     inkscape:window-x="-8"
     inkscape:window-y="-8"
     inkscape:window-maximized="1"
     inkscape:current-layer="g4755" /><g
     id="g4755"
     inkscape:groupmode="layer"
     inkscape:label="green-grass-publicdomainvectors.org (2)"
     transform="matrix(1.3333333,0,0,-1.3333333,0,800)"><g
       id="g4757"><g
         id="g4759"
         clip-path="url(#clipPath4763)"><path
           d="M 34.654,136.94 C 40.16,203.375 38.84,273.389 21.739,351.666 46.098,294.031 54.428,237.092 54.029,180.532 47.57,166.001 41.111,151.473 34.654,136.94"
           style="fill:#7bc42a;fill-opacity:1;fill-rule:evenodd;stroke:none"
           id="path4765"
           inkscape:connector-curvature="0" /><path
           d="M 52.407,145.014 C 58.257,215.57 56.854,289.927 38.69,373.063 64.561,311.851 73.411,251.379 72.985,191.309 66.124,175.876 59.266,160.443 52.407,145.014"
           style="fill:#7bc42a;fill-opacity:1;fill-rule:evenodd;stroke:none"
           id="path4767"
           inkscape:connector-curvature="0" /><path
           d="M 49.993,104.651 C 55.5,171.086 54.178,241.099 37.075,319.376 61.434,261.742 69.766,204.8 69.364,148.24 62.905,133.711 56.452,119.183 49.993,104.651"
           style="fill:#7bc42a;fill-opacity:1;fill-rule:evenodd;stroke:none"
           id="path4769"
           inkscape:connector-curvature="0" /><path
           d="M 65.759,139.243 C 72.197,216.918 70.652,298.772 50.655,390.296 79.134,322.908 88.877,256.334 88.41,190.21 80.858,173.22 73.308,156.233 65.759,139.243"
           style="fill:#7bc42a;fill-opacity:1;fill-rule:evenodd;stroke:none"
           id="path4771"
           inkscape:connector-curvature="0" /><path
           d="M 87.196,129.667 C 92.704,196.102 91.384,266.112 74.281,344.39 98.64,286.756 106.972,229.815 106.57,173.256 100.114,158.725 93.655,144.196 87.196,129.667"
           style="fill:#7bc42a;fill-opacity:1;fill-rule:evenodd;stroke:none"
           id="path4773"
           inkscape:connector-curvature="0" /><path
           d="M 93.342,167.606 C 87.834,234.041 89.156,304.054 106.257,382.331 81.898,324.697 73.568,267.755 73.968,211.195 80.427,196.667 86.883,182.138 93.342,167.606"
           style="fill:#7bc42a;fill-opacity:1;fill-rule:evenodd;stroke:none"
           id="path4775"
           inkscape:connector-curvature="0" /><path
           d="m 111.1,134.508 c -5.505,66.436 -4.185,136.447 12.916,214.727 C 99.657,291.599 91.327,234.661 91.726,178.102 98.185,163.57 104.644,149.039 111.1,134.508"
           style="fill:#7bc42a;fill-opacity:1;fill-rule:evenodd;stroke:none"
           id="path4777"
           inkscape:connector-curvature="0" /><path
           d="m 135.987,134.399 c 6.438,77.674 4.896,159.531 -15.098,251.051 28.479,-67.386 38.217,-133.956 37.75,-200.086 -7.553,-16.988 -15.099,-33.976 -22.652,-50.965"
           style="fill:#7bc42a;fill-opacity:1;fill-rule:evenodd;stroke:none"
           id="path4779"
           inkscape:connector-curvature="0" /><path
           d="m 105.784,128.885 c 5.508,66.433 4.189,136.444 -12.915,214.721 24.359,-57.633 32.692,-114.574 32.29,-171.133 -6.457,-14.532 -12.916,-29.06 -19.375,-43.588"
           style="fill:#7bc42a;fill-opacity:1;fill-rule:evenodd;stroke:none"
           id="path4781"
           inkscape:connector-curvature="0" /><path
           d="m 125.874,133.693 c -5.508,66.437 -4.186,136.448 12.915,214.728 -24.359,-57.637 -32.689,-114.577 -32.29,-171.134 6.459,-14.531 12.916,-29.062 19.375,-43.594"
           style="fill:#7bc42a;fill-opacity:1;fill-rule:evenodd;stroke:none"
           id="path4783"
           inkscape:connector-curvature="0" /><path
           d="m 163.411,175.671 c -5.508,66.436 -4.189,136.447 12.912,214.725 -24.356,-57.637 -32.689,-114.575 -32.289,-171.133 6.459,-14.532 12.918,-29.061 19.377,-43.592"
           style="fill:#7bc42a;fill-opacity:1;fill-rule:evenodd;stroke:none"
           id="path4785"
           inkscape:connector-curvature="0" /><path
           d="m 147.668,154.278 c -5.508,66.435 -4.186,136.448 12.915,214.728 -24.359,-57.637 -32.689,-114.576 -32.29,-171.136 6.459,-14.528 12.918,-29.06 19.375,-43.592"
           style="fill:#7bc42a;fill-opacity:1;fill-rule:evenodd;stroke:none"
           id="path4787"
           inkscape:connector-curvature="0" /><path
           d="m 117.893,130.498 c 5.508,66.434 4.189,136.447 -12.915,214.725 24.359,-57.634 32.691,-114.577 32.289,-171.136 -6.456,-14.529 -12.915,-29.058 -19.374,-43.589"
           style="fill:#7bc42a;fill-opacity:1;fill-rule:evenodd;stroke:none"
           id="path4789"
           inkscape:connector-curvature="0" /><path
           d="m 168.75,123.907 c 8.251,99.563 6.275,204.485 -19.356,321.8 36.504,-86.376 48.992,-171.709 48.393,-256.475 -9.681,-21.775 -19.359,-43.551 -29.037,-65.325"
           style="fill:#7bc42a;fill-opacity:1;fill-rule:evenodd;stroke:none"
           id="path4791"
           inkscape:connector-curvature="0" /><path
           d="m 155.835,146.643 c 5.505,66.434 4.186,136.447 -12.916,214.724 24.359,-57.634 32.689,-114.577 32.29,-171.136 -6.459,-14.529 -12.918,-29.057 -19.374,-43.588"
           style="fill:#7bc42a;fill-opacity:1;fill-rule:evenodd;stroke:none"
           id="path4793"
           inkscape:connector-curvature="0" /><path
           d="m 268.341,146.611 c -5.508,66.434 -4.189,136.448 12.915,214.727 -24.356,-57.636 -32.692,-114.576 -32.289,-171.136 6.459,-14.528 12.915,-29.059 19.374,-43.591"
           style="fill:#7bc42a;fill-opacity:1;fill-rule:evenodd;stroke:none"
           id="path4795"
           inkscape:connector-curvature="0" /><path
           d="m 250.588,154.684 c -5.849,70.559 -4.446,144.914 13.717,228.049 -25.87,-61.21 -34.718,-121.684 -34.292,-181.754 6.858,-15.43 13.716,-30.863 20.575,-46.295"
           style="fill:#7bc42a;fill-opacity:1;fill-rule:evenodd;stroke:none"
           id="path4797"
           inkscape:connector-curvature="0" /><path
           d="m 253.003,114.321 c -5.505,66.435 -4.186,136.448 12.915,214.728 -24.359,-57.637 -32.689,-114.577 -32.29,-171.136 6.459,-14.531 12.918,-29.06 19.375,-43.592"
           style="fill:#7bc42a;fill-opacity:1;fill-rule:evenodd;stroke:none"
           id="path4799"
           inkscape:connector-curvature="0" /><path
           d="m 237.239,148.913 c -6.438,77.676 -4.898,159.529 15.099,251.053 -28.479,-67.386 -38.22,-133.959 -37.753,-200.086 7.553,-16.99 15.102,-33.977 22.654,-50.967"
           style="fill:#7bc42a;fill-opacity:1;fill-rule:evenodd;stroke:none"
           id="path4801"
           inkscape:connector-curvature="0" /><path
           d="m 213.747,157.472 c -5.508,66.433 -4.188,136.444 12.916,214.724 -24.359,-57.636 -32.692,-114.574 -32.29,-171.133 6.456,-14.532 12.915,-29.063 19.374,-43.591"
           style="fill:#7bc42a;fill-opacity:1;fill-rule:evenodd;stroke:none"
           id="path4803"
           inkscape:connector-curvature="0" /><path
           d="m 209.653,177.276 c 5.508,66.435 4.186,136.448 -12.915,214.728 24.356,-57.637 32.692,-114.577 32.287,-171.136 -6.457,-14.529 -12.913,-29.06 -19.372,-43.592"
           style="fill:#7bc42a;fill-opacity:1;fill-rule:evenodd;stroke:none"
           id="path4805"
           inkscape:connector-curvature="0" /><path
           d="m 197.132,148.492 c 5.508,66.435 4.186,136.447 -12.915,214.728 24.359,-57.637 32.689,-114.577 32.289,-171.136 -6.459,-14.529 -12.915,-29.061 -19.374,-43.592"
           style="fill:#7bc42a;fill-opacity:1;fill-rule:evenodd;stroke:none"
           id="path4807"
           inkscape:connector-curvature="0" /><path
           d="m 197.208,138.555 c -5.507,66.433 -4.186,136.444 12.918,214.724 -24.359,-57.636 -32.691,-114.577 -32.289,-171.135 6.458,-14.53 12.915,-29.061 19.371,-43.589"
           style="fill:#7bc42a;fill-opacity:1;fill-rule:evenodd;stroke:none"
           id="path4809"
           inkscape:connector-curvature="0" /><path
           d="m 403.83,129.557 c -6.437,77.675 -4.896,159.529 15.098,251.05 -28.479,-67.385 -38.219,-133.959 -37.75,-200.086 7.551,-16.988 15.099,-33.976 22.652,-50.964"
           style="fill:#7bc42a;fill-opacity:1;fill-rule:evenodd;stroke:none"
           id="path4811"
           inkscape:connector-curvature="0" /><path
           d="m 412.635,140.83 c 5.508,66.434 4.185,136.447 -12.914,214.728 24.355,-57.637 32.687,-114.578 32.289,-171.137 -6.459,-14.528 -12.916,-29.06 -19.375,-43.591"
           style="fill:#7bc42a;fill-opacity:1;fill-rule:evenodd;stroke:none"
           id="path4813"
           inkscape:connector-curvature="0" /><path
           d="m 395.783,140.557 c 5.85,70.559 4.447,144.914 -13.717,228.049 25.872,-61.21 34.721,-121.684 34.295,-181.754 -6.861,-15.43 -13.718,-30.863 -20.578,-46.295"
           style="fill:#7bc42a;fill-opacity:1;fill-rule:evenodd;stroke:none"
           id="path4815"
           inkscape:connector-curvature="0" /><path
           d="m 575.191,141.845 c -5.507,66.433 -4.187,136.447 12.916,214.726 -24.359,-57.635 -32.691,-114.576 -32.289,-171.135 6.455,-14.529 12.914,-29.06 19.373,-43.591"
           style="fill:#7bc42a;fill-opacity:1;fill-rule:evenodd;stroke:none"
           id="path4817"
           inkscape:connector-curvature="0" /><path
           d="m 557.436,149.917 c -5.85,70.557 -4.446,144.913 13.716,228.05 -25.869,-61.213 -34.716,-121.685 -34.291,-181.755 6.858,-15.43 13.717,-30.865 20.575,-46.295"
           style="fill:#7bc42a;fill-opacity:1;fill-rule:evenodd;stroke:none"
           id="path4819"
           inkscape:connector-curvature="0" /><path
           d="m 559.854,109.555 c -5.508,66.434 -4.19,136.447 12.916,214.724 -24.36,-57.633 -32.692,-114.576 -32.291,-171.135 6.459,-14.529 12.916,-29.058 19.375,-43.589"
           style="fill:#7bc42a;fill-opacity:1;fill-rule:evenodd;stroke:none"
           id="path4821"
           inkscape:connector-curvature="0" /><path
           d="m 544.088,144.146 c -6.44,77.675 -4.897,159.53 15.101,251.053 -28.48,-67.386 -38.222,-133.959 -37.753,-200.086 7.55,-16.99 15.101,-33.976 22.652,-50.967"
           style="fill:#7bc42a;fill-opacity:1;fill-rule:evenodd;stroke:none"
           id="path4823"
           inkscape:connector-curvature="0" /><path
           d="m 522.648,134.57 c -5.507,66.435 -4.187,136.446 12.915,214.726 -24.36,-57.637 -32.69,-114.577 -32.29,-171.137 6.459,-14.531 12.916,-29.059 19.375,-43.589"
           style="fill:#7bc42a;fill-opacity:1;fill-rule:evenodd;stroke:none"
           id="path4825"
           inkscape:connector-curvature="0" /><path
           d="m 516.502,172.51 c 5.508,66.434 4.187,136.447 -12.916,214.727 24.359,-57.636 32.691,-114.577 32.289,-171.135 -6.455,-14.532 -12.914,-29.061 -19.373,-43.592"
           style="fill:#7bc42a;fill-opacity:1;fill-rule:evenodd;stroke:none"
           id="path4827"
           inkscape:connector-curvature="0" /><path
           d="m 498.742,139.411 c 5.508,66.437 4.188,136.447 -12.914,214.728 24.36,-57.637 32.69,-114.575 32.289,-171.134 -6.459,-14.531 -12.916,-29.063 -19.375,-43.594"
           style="fill:#7bc42a;fill-opacity:1;fill-rule:evenodd;stroke:none"
           id="path4829"
           inkscape:connector-curvature="0" /><path
           d="m 473.855,139.304 c -6.437,77.673 -4.892,159.529 15.102,251.05 -28.478,-67.385 -38.221,-133.957 -37.752,-200.086 7.553,-16.989 15.102,-33.977 22.65,-50.964"
           style="fill:#7bc42a;fill-opacity:1;fill-rule:evenodd;stroke:none"
           id="path4831"
           inkscape:connector-curvature="0" /><path
           d="m 504.059,133.788 c -5.508,66.434 -4.186,136.444 12.916,214.725 -24.36,-57.637 -32.692,-114.577 -32.289,-171.137 6.459,-14.531 12.914,-29.06 19.373,-43.588"
           style="fill:#7bc42a;fill-opacity:1;fill-rule:evenodd;stroke:none"
           id="path4833"
           inkscape:connector-curvature="0" /><path
           d="m 483.971,138.599 c 5.508,66.434 4.187,136.445 -12.916,214.725 24.359,-57.636 32.691,-114.574 32.289,-171.134 -6.455,-14.531 -12.914,-29.062 -19.373,-43.591"
           style="fill:#7bc42a;fill-opacity:1;fill-rule:evenodd;stroke:none"
           id="path4835"
           inkscape:connector-curvature="0" /><path
           d="m 446.436,180.574 c 5.505,66.437 4.185,136.447 -12.916,214.725 24.357,-57.634 32.689,-114.574 32.291,-171.133 -6.459,-14.531 -12.918,-29.061 -19.375,-43.592"
           style="fill:#7bc42a;fill-opacity:1;fill-rule:evenodd;stroke:none"
           id="path4837"
           inkscape:connector-curvature="0" /><path
           d="m 462.176,159.182 c 5.508,66.437 4.189,136.447 -12.916,214.727 24.359,-57.637 32.691,-114.576 32.291,-171.136 -6.459,-14.528 -12.916,-29.06 -19.375,-43.591"
           style="fill:#7bc42a;fill-opacity:1;fill-rule:evenodd;stroke:none"
           id="path4839"
           inkscape:connector-curvature="0" /><path
           d="m 491.951,135.401 c -5.508,66.434 -4.187,136.448 12.914,214.725 -24.359,-57.634 -32.691,-114.577 -32.289,-171.134 6.459,-14.531 12.916,-29.059 19.375,-43.591"
           style="fill:#7bc42a;fill-opacity:1;fill-rule:evenodd;stroke:none"
           id="path4841"
           inkscape:connector-curvature="0" /><path
           d="m 437.816,128.811 c -7.322,88.334 -5.564,181.423 17.176,285.507 -32.39,-76.634 -43.469,-152.344 -42.935,-227.547 8.588,-19.322 17.175,-38.641 25.759,-57.96"
           style="fill:#7bc42a;fill-opacity:1;fill-rule:evenodd;stroke:none"
           id="path4843"
           inkscape:connector-curvature="0" /><path
           d="M 433.814,154.775 C 439.322,221.212 438,291.22 420.898,369.5 445.256,311.863 453.588,254.926 453.186,198.366 446.73,183.835 440.271,169.304 433.814,154.775"
           style="fill:#7bc42a;fill-opacity:1;fill-rule:evenodd;stroke:none"
           id="path4845"
           inkscape:connector-curvature="0" /><path
           d="m 353.303,151.515 c -5.506,66.433 -4.186,136.447 12.916,214.726 -24.36,-57.636 -32.69,-114.576 -32.289,-171.136 6.459,-14.528 12.916,-29.059 19.373,-43.59"
           style="fill:#7bc42a;fill-opacity:1;fill-rule:evenodd;stroke:none"
           id="path4847"
           inkscape:connector-curvature="0" /><path
           d="m 335.549,159.587 c -5.848,70.559 -4.447,144.914 13.717,228.05 -25.868,-61.21 -34.719,-121.685 -34.293,-181.755 6.859,-15.43 13.716,-30.862 20.576,-46.295"
           style="fill:#7bc42a;fill-opacity:1;fill-rule:evenodd;stroke:none"
           id="path4849"
           inkscape:connector-curvature="0" /><path
           d="m 337.965,119.225 c -5.508,66.434 -4.186,136.447 12.916,214.727 -24.356,-57.637 -32.692,-114.577 -32.287,-171.136 6.457,-14.529 12.912,-29.06 19.371,-43.591"
           style="fill:#7bc42a;fill-opacity:1;fill-rule:evenodd;stroke:none"
           id="path4851"
           inkscape:connector-curvature="0" /><path
           d="m 322.199,153.816 c -6.437,77.676 -4.892,159.533 15.102,251.053 -28.48,-67.386 -38.221,-133.959 -37.753,-200.086 7.552,-16.99 15.101,-33.976 22.651,-50.967"
           style="fill:#7bc42a;fill-opacity:1;fill-rule:evenodd;stroke:none"
           id="path4853"
           inkscape:connector-curvature="0" /><path
           d="m 298.707,162.375 c -5.505,66.434 -4.184,136.444 12.918,214.725 -24.359,-57.637 -32.691,-114.575 -32.29,-171.134 6.459,-14.531 12.916,-29.063 19.372,-43.591"
           style="fill:#7bc42a;fill-opacity:1;fill-rule:evenodd;stroke:none"
           id="path4855"
           inkscape:connector-curvature="0" /><path
           d="m 294.615,182.18 c 5.506,66.434 4.187,136.447 -12.915,214.727 24.36,-57.636 32.69,-114.577 32.29,-171.136 -6.459,-14.529 -12.918,-29.06 -19.375,-43.591"
           style="fill:#7bc42a;fill-opacity:1;fill-rule:evenodd;stroke:none"
           id="path4857"
           inkscape:connector-curvature="0" /><path
           d="m 282.095,153.396 c 5.508,66.437 4.188,136.447 -12.916,214.727 24.356,-57.637 32.692,-114.577 32.29,-171.136 -6.459,-14.529 -12.915,-29.06 -19.374,-43.591"
           style="fill:#7bc42a;fill-opacity:1;fill-rule:evenodd;stroke:none"
           id="path4859"
           inkscape:connector-curvature="0" /><path
           d="m 282.173,143.458 c -5.507,66.434 -4.189,136.447 12.913,214.725 -24.359,-57.637 -32.689,-114.578 -32.29,-171.136 6.459,-14.529 12.918,-29.061 19.377,-43.589"
           style="fill:#7bc42a;fill-opacity:1;fill-rule:evenodd;stroke:none"
           id="path4861"
           inkscape:connector-curvature="0" /><path
           d="m 375.939,134.46 c 6.44,77.676 4.895,159.529 -15.099,251.054 28.478,-67.389 38.221,-133.962 37.75,-200.089 -7.549,-16.988 -15.1,-33.977 -22.651,-50.965"
           style="fill:#7bc42a;fill-opacity:1;fill-rule:evenodd;stroke:none"
           id="path4863"
           inkscape:connector-curvature="0" /><path
           d="m 367.133,145.733 c -5.504,66.437 -4.186,136.448 12.916,214.728 -24.358,-57.637 -32.69,-114.577 -32.287,-171.137 6.457,-14.528 12.916,-29.059 19.371,-43.591"
           style="fill:#7bc42a;fill-opacity:1;fill-rule:evenodd;stroke:none"
           id="path4865"
           inkscape:connector-curvature="0" /><path
           d="m 383.984,145.46 c -5.849,70.56 -4.445,144.914 13.717,228.05 -25.869,-61.21 -34.717,-121.685 -34.291,-181.755 6.858,-15.43 13.717,-30.862 20.574,-46.295"
           style="fill:#7bc42a;fill-opacity:1;fill-rule:evenodd;stroke:none"
           id="path4867"
           inkscape:connector-curvature="0" /><path
           d="m 452.096,145.881 c -5.85,70.559 -4.446,144.913 13.717,228.05 -25.87,-61.211 -34.717,-121.686 -34.292,-181.755 6.858,-15.43 13.717,-30.863 20.575,-46.295"
           style="fill:#7bc42a;fill-opacity:1;fill-rule:evenodd;stroke:none"
           id="path4869"
           inkscape:connector-curvature="0" /><path
           d="m 379.205,196.369 c -35.892,113.129 38.201,182.562 -0.926,263.635 51.543,-78.884 -31.506,-170.066 15.159,-264.28 z"
           style="fill:#7bc42a;fill-opacity:1;fill-rule:evenodd;stroke:none"
           id="path4871"
           inkscape:connector-curvature="0" /><path
           d="M 228.118,209.346 C 267.274,332.765 186.44,408.512 229.125,496.961 172.896,410.9 263.495,311.422 212.591,208.639 Z"
           style="fill:#7bc42a;fill-opacity:1;fill-rule:evenodd;stroke:none"
           id="path4873"
           inkscape:connector-curvature="0" /><path
           d="M 295.041,209.175 C 255.943,332.412 336.654,408.044 294.035,496.36 350.18,410.427 259.714,311.102 310.542,208.473 Z"
           style="fill:#7bc42a;fill-opacity:1;fill-rule:evenodd;stroke:none"
           id="path4875"
           inkscape:connector-curvature="0" /><path
           d="m 281.354,540.823 c 3.271,1.053 18.848,-14.998 24.547,-32.73 5.703,-17.734 0.185,-30.171 -3.902,-31.487 -4.086,-1.314 -15.821,5.579 -21.523,23.312 -5.7,17.733 -2.397,39.853 0.878,40.905"
           style="fill:#7bc42a;fill-opacity:1;fill-rule:evenodd;stroke:none"
           id="path4877"
           inkscape:connector-curvature="0" /><path
           d="m 260.029,440.877 c 2.659,2.177 23.03,-7.06 34.825,-21.474 11.796,-14.418 11.215,-28.014 7.892,-30.731 -3.324,-2.717 -16.766,-0.599 -28.561,13.816 -11.796,14.416 -16.817,36.21 -14.156,38.389"
           style="fill:#7bc42a;fill-opacity:1;fill-rule:evenodd;stroke:none"
           id="path4879"
           inkscape:connector-curvature="0" /><path
           d="m 354.295,485.992 c 2.703,-2.12 -1.861,-24.014 -13.352,-38.673 -11.494,-14.66 -24.888,-17.06 -28.267,-14.412 -3.379,2.649 -4.246,16.229 7.248,30.889 11.494,14.659 31.664,24.317 34.371,22.196"
           style="fill:#7bc42a;fill-opacity:1;fill-rule:evenodd;stroke:none"
           id="path4881"
           inkscape:connector-curvature="0" /><path
           d="m 357.459,351.747 c 1.447,-3.116 -12.551,-20.559 -29.441,-28.411 -16.892,-7.852 -29.92,-3.918 -31.729,-0.023 -1.81,3.891 3.579,16.388 20.471,24.241 16.89,7.851 39.248,7.309 40.699,4.193"
           style="fill:#7bc42a;fill-opacity:1;fill-rule:evenodd;stroke:none"
           id="path4883"
           inkscape:connector-curvature="0" /><path
           d="m 243.33,325.333 c 2.662,2.179 23.029,-7.058 34.828,-21.474 11.796,-14.416 11.215,-28.011 7.891,-30.728 -3.324,-2.72 -16.767,-0.6 -28.561,13.816 -11.798,14.416 -16.817,36.21 -14.158,38.386"
           style="fill:#7bc42a;fill-opacity:1;fill-rule:evenodd;stroke:none"
           id="path4885"
           inkscape:connector-curvature="0" /><path
           d="M 87.968,194.473 C 117.452,287.399 56.588,344.432 88.73,411.028 46.393,346.229 114.608,271.333 76.28,193.941 Z"
           style="fill:#7bc42a;fill-opacity:1;fill-rule:evenodd;stroke:none"
           id="path4887"
           inkscape:connector-curvature="0" /><path
           d="m 98.29,444.559 c -2.467,0.794 -14.21,-11.31 -18.512,-24.68 -4.299,-13.375 -0.139,-22.754 2.946,-23.744 3.079,-0.993 11.929,4.204 16.228,17.579 4.299,13.37 1.808,30.051 -0.662,30.845"
           style="fill:#7bc42a;fill-opacity:1;fill-rule:evenodd;stroke:none"
           id="path4889"
           inkscape:connector-curvature="0" /><path
           d="m 114.372,369.19 c -2.008,1.642 -17.367,-5.321 -26.262,-16.192 -8.895,-10.871 -8.456,-21.122 -5.949,-23.172 2.505,-2.052 12.639,-0.451 21.537,10.417 8.892,10.873 12.681,27.308 10.674,28.947"
           style="fill:#7bc42a;fill-opacity:1;fill-rule:evenodd;stroke:none"
           id="path4891"
           inkscape:connector-curvature="0" /><path
           d="m 43.289,403.211 c -2.041,-1.598 1.401,-18.107 10.067,-29.162 8.666,-11.055 18.767,-12.865 21.316,-10.866 2.546,1.997 3.201,12.237 -5.465,23.293 -8.667,11.051 -23.879,18.336 -25.918,16.735"
           style="fill:#7bc42a;fill-opacity:1;fill-rule:evenodd;stroke:none"
           id="path4893"
           inkscape:connector-curvature="0" /><path
           d="m 40.903,301.98 c -1.093,-2.351 9.463,-15.503 22.202,-21.423 12.736,-5.923 22.559,-2.953 23.923,-0.019 1.366,2.939 -2.696,12.358 -15.436,18.281 -12.736,5.92 -29.598,5.513 -30.689,3.161"
           style="fill:#7bc42a;fill-opacity:1;fill-rule:evenodd;stroke:none"
           id="path4895"
           inkscape:connector-curvature="0" /><path
           d="m 126.964,282.065 c -2.008,1.64 -17.369,-5.324 -26.262,-16.192 -8.897,-10.874 -8.458,-21.124 -5.952,-23.174 2.505,-2.053 12.643,-0.452 21.538,10.419 8.894,10.868 12.678,27.305 10.676,28.947"
           style="fill:#7bc42a;fill-opacity:1;fill-rule:evenodd;stroke:none"
           id="path4897"
           inkscape:connector-curvature="0" /><path
           d="m 508.754,199.065 c 29.48,92.927 -31.379,149.959 0.758,216.557 -42.336,-64.8 25.881,-139.698 -12.448,-217.087 z"
           style="fill:#7bc42a;fill-opacity:1;fill-rule:evenodd;stroke:none"
           id="path4899"
           inkscape:connector-curvature="0" /><path
           d="m 519.074,449.149 c -2.469,0.795 -14.213,-11.308 -18.511,-24.682 -4.301,-13.37 -0.137,-22.751 2.945,-23.741 3.08,-0.992 11.93,4.207 16.228,17.579 4.299,13.371 1.807,30.051 -0.662,30.844"
           style="fill:#7bc42a;fill-opacity:1;fill-rule:evenodd;stroke:none"
           id="path4901"
           inkscape:connector-curvature="0" /><path
           d="m 535.156,373.783 c -2.008,1.64 -17.367,-5.323 -26.261,-16.192 -8.895,-10.873 -8.457,-21.124 -5.954,-23.174 2.508,-2.052 12.643,-0.452 21.538,10.419 8.894,10.871 12.681,27.305 10.677,28.947"
           style="fill:#7bc42a;fill-opacity:1;fill-rule:evenodd;stroke:none"
           id="path4903"
           inkscape:connector-curvature="0" /><path
           d="m 464.072,407.802 c -2.041,-1.598 1.401,-18.108 10.069,-29.162 8.666,-11.053 18.765,-12.866 21.312,-10.867 2.549,1.998 3.203,12.238 -5.463,23.292 -8.666,11.056 -23.879,18.339 -25.918,16.737"
           style="fill:#7bc42a;fill-opacity:1;fill-rule:evenodd;stroke:none"
           id="path4905"
           inkscape:connector-curvature="0" /><path
           d="m 461.688,306.571 c -1.094,-2.349 9.46,-15.504 22.201,-21.424 12.736,-5.919 22.558,-2.951 23.922,-0.018 1.367,2.937 -2.698,12.361 -15.434,18.281 -12.738,5.92 -29.598,5.513 -30.689,3.161"
           style="fill:#7bc42a;fill-opacity:1;fill-rule:evenodd;stroke:none"
           id="path4907"
           inkscape:connector-curvature="0" /><path
           d="m 547.744,286.655 c -2.004,1.643 -17.365,-5.32 -26.26,-16.191 -8.896,-10.871 -8.457,-21.125 -5.949,-23.174 2.506,-2.05 12.641,-0.452 21.535,10.419 8.897,10.87 12.682,27.305 10.674,28.946"
           style="fill:#7bc42a;fill-opacity:1;fill-rule:evenodd;stroke:none"
           id="path4909"
           inkscape:connector-curvature="0" /><path
           d="m 409.254,249.941 c 3.287,39.661 2.498,81.457 -7.711,128.189 14.539,-34.408 19.518,-68.401 19.275,-102.166 -3.855,-8.672 -7.711,-17.349 -11.564,-26.023"
           style="fill:#7bc42a;fill-opacity:1;fill-rule:evenodd;stroke:none"
           id="path4911"
           inkscape:connector-curvature="0" /><path
           d="m 407.268,355.687 c -7.957,11.233 -20.325,13.104 -23.112,26.584 -3.125,15.101 4.209,37.555 6.696,52.775 7.976,-10.314 22.054,-25.284 24.695,-38.052 3.308,-15.995 -5.774,-25.169 -8.279,-41.307"
           style="fill:#7bc42a;fill-opacity:1;fill-rule:evenodd;stroke:none"
           id="path4913"
           inkscape:connector-curvature="0" /><path
           d="m 416.625,313.366 c -0.424,13.762 -9.695,22.157 -4.564,34.934 5.744,14.31 24.265,28.968 34.75,40.277 0.947,-13.005 4.402,-33.262 -0.454,-45.359 -6.086,-15.159 -18.722,-17.785 -29.732,-29.852"
           style="fill:#7bc42a;fill-opacity:1;fill-rule:evenodd;stroke:none"
           id="path4915"
           inkscape:connector-curvature="0" /><path
           d="m 192.076,201.438 c 5.508,66.435 4.186,136.445 -12.915,214.725 24.359,-57.637 32.689,-114.574 32.29,-171.133 -6.459,-14.532 -12.916,-29.063 -19.375,-43.592"
           style="fill:#7bc42a;fill-opacity:1;fill-rule:evenodd;stroke:none"
           id="path4917"
           inkscape:connector-curvature="0" /><path
           d="m 188.752,378.565 c -13.333,18.818 -34.044,21.953 -38.717,44.533 -5.229,25.297 7.053,62.905 11.218,88.401 13.362,-17.275 36.941,-42.353 41.363,-63.738 5.545,-26.794 -9.667,-42.158 -13.864,-69.196"
           style="fill:#7bc42a;fill-opacity:1;fill-rule:evenodd;stroke:none"
           id="path4919"
           inkscape:connector-curvature="0" /><path
           d="m 204.424,307.68 c -0.707,23.05 -16.236,37.114 -7.647,58.511 9.623,23.973 40.646,48.525 58.21,67.469 1.587,-21.78 7.373,-55.715 -0.759,-75.979 -10.194,-25.392 -31.363,-29.788 -49.804,-50.001"
           style="fill:#7bc42a;fill-opacity:1;fill-rule:evenodd;stroke:none"
           id="path4921"
           inkscape:connector-curvature="0" /></g></g></g></svg>